<svg id="Layer_1" xmlns="http://www.w3.org/2000/svg" viewBox="106 -106 512 512"><style>.st1{fill:#198aee}</style><path fill="#e8f0fa" d="M105.9-106h512v512h-512z"/><g id="Page-1"><g id="code"><path id="Shape" class="st1" d="M570.4 82.9h-23.7c-.5-.3-.9-.8-1.4-1.1-16.2-10-82.3-7.7-122 4.3-3.5 1.1-6.9 2.2-10 3.4-6.9 2.7-14 5.1-21.3 6.2-9.3 1.3-19.4 2.1-30 2.1s-20.7-.8-30-2.1c-7.3-1.1-14.4-3.5-21.3-6.2-3-1.2-6.3-2.4-10-3.4-39.6-12-105.8-14.3-122-4.4-.5.3-.9.8-1.4 1.1h-23.7c-4.1 0-7.4 3.4-7.4 7.4v16.6c0 3.5 1.8 6.9 4.7 8.9l6.9 4.6c2.1 1.4 3.4 3.9 3.3 6.4-.6 18.3 3 39.2 11 58 13 30.3 57.9 39.5 90.2 39.5 12.4 0 22.9-1.3 29-3.4 15.7-5.2 29.9-26.7 37.8-45 6.8-15.7 10.4-31 10.5-44.3 0-2.5 1.3-4.9 3.5-6.2 5.1-3.3 11.7-5.3 19-5.3s13.9 2 19 5.3c2.2 1.3 3.4 3.7 3.5 6.2.2 13.2 3.7 28.6 10.5 44.3 8 18.3 22.1 39.8 37.8 45 6.1 2 16.6 3.4 29 3.4 32.2 0 77.3-9.1 90.2-39.5 8-18.8 11.6-39.7 11-58-.1-2.6 1.1-5 3.3-6.4l6.9-4.6c3-1.9 4.7-5.3 4.7-8.9V90.4c-.2-4.1-3.5-7.5-7.6-7.5zm-255.1 87.2c-8.2 18.7-20 33.9-28.8 36.8-18.3 6-87.7 3-100.9-27.8-15.4-36.1-10.5-77.6.8-84.5 4.2-2.6 16.9-4 33-4 23.3 0 53.9 3 76.9 10 20.4 6.2 24.7 12.5 25.5 14.3 5.5 11.7 2.9 33.5-6.5 55.2zm222.9 9c-13.2 30.8-82.6 33.8-100.9 27.8-8.9-3-20.7-18-28.8-36.8-9.4-21.8-12-43.5-6.5-55.4.8-1.8 5.1-8.1 25.5-14.3 39-11.8 99.5-12.3 109.9-5.9 11.3 7 16.2 48.5.8 84.6z"/><g id="browser" transform="translate(77 45)"><g id="Group"><path id="Shape_1_" class="st1" d="M176.2 71.2l-42.3 31.9 42.3 31.1 10-11.5-26.5-19.6 26.5-19.5z"/><path id="Shape_2_" class="st1" d="M408.8 74.6l-8.3 10.5 24.3 17.9-24.3 18 8.3 9.7 39.7-27.7z"/><path id="Shape_3_" class="st1" d="M351.5 141.7h17l26.7-73.8h-15.8z"/></g></g></g></g></svg>